PathFileType	4	(X/Y/Z)	./resultDataOpenSim/trcMotMarkerGrf/sub09/qtm-04-06.trc
DataRate	CameraRate	NumFrames	NumMarkers	Units	OrigDataRate	OrigDataStartFrame	OrigNumFrames
250.000000	250.000000	11	24	m	250.000000	1	506
Frame#	Time	L.Toe.Tip			R.Toe.Tip			L.Ankle.Lat			R.Ankle.Lat			L.Ankle.Med			R.Ankle.Med			L.Heel			R.Heel			L.Knee.Lat			R.Knee.Lat			L.Knee.Med			R.Knee.Med			L.Thigh.Upper			R.Thigh.Upper			L.ASIS			R.ASIS			V.Sacral			L.Acromium			R.Acromium			C7			L.Elbow			R.Elbow			L.Wrist.Lat			R.Wrist.Lat
		X1	Y1	Z1	X2	Y2	Z2	X3	Y3	Z3	X4	Y4	Z4	X5	Y5	Z5	X6	Y6	Z6	X7	Y7	Z7	X8	Y8	Z8	X9	Y9	Z9	X10	Y10	Z10	X11	Y11	Z11	X12	Y12	Z12	X13	Y13	Z13	X14	Y14	Z14	X15	Y15	Z15	X16	Y16	Z16	X17	Y17	Z17	X18	Y18	Z18	X19	Y19	Z19	X20	Y20	Z20	X21	Y21	Z21	X22	Y22	Z22	X23	Y23	Z23	X24	Y24	Z24

1	0	-1.4752729	0.036652766	-0.023927086	-0.93437855	0.077436113	0.084471149	-1.6251983	0.077109669	-0.053808323	-1.0836177	0.068173757	0.11376417	-1.5970659	0.093283822	0.038755114	-1.0750258	0.10744186	0.023344729	NaN	NaN	NaN	-1.138525	0.033198933	0.058324247	-1.4752335	0.46767898	-0.11790795	-1.1241196	0.52465574	0.16218066	-1.4724557	0.46864024	0.0085536269	-1.1286057	0.50566663	0.035462334	-1.3701269	0.87594819	-0.1637599	-1.3341457	0.87308976	0.20494399	-1.263384	0.94774383	-0.1123976	-1.2536882	0.95469466	0.12726433	-1.4206037	1.0160722	0.018566707	-1.2262696	1.4024444	-0.15180825	-1.2581606	1.4116518	0.17483844	-1.3042165	1.4618872	0.0064246921	-1.3166926	1.0368007	-0.23088909	-1.4337266	1.0970004	0.25422158	-1.0614529	0.93783764	-0.21393773	-1.3486462	0.84162528	0.28937379
2	0.004	-1.4751969	0.036603839	-0.023959809	-0.91642305	0.081020188	0.085185215	-1.6249837	0.077890976	-0.053566409	-1.066322	0.067979841	0.11389527	-1.5967327	0.093823845	0.038978603	-1.0580408	0.10759463	0.023597318	NaN	NaN	NaN	-1.1199601	0.031961605	0.058396783	-1.472893	0.46759933	-0.11788277	-1.1185018	0.52311918	0.16266233	-1.4697139	0.46861956	0.00855838	-1.1216263	0.50432907	0.035733297	-1.364652	0.87486836	-0.16350145	-1.3283786	0.87160722	0.20516975	-1.2575872	0.94640869	-0.11235016	-1.2475748	0.95312311	0.12744033	-1.4145631	1.0146253	0.018859118	-1.2204431	1.4012269	-0.15144865	-1.2524969	1.4101962	0.17523783	-1.2979081	1.4605376	0.0079768129	-1.3096529	1.0350912	-0.23091434	-1.4281332	1.0955199	0.25360955	-1.0535276	0.93835384	-0.21314871	-1.3432968	0.83992564	0.29010857
3	0.008	-1.4751208	0.036559842	-0.023995398	-0.89888418	0.08460131	0.085937552	-1.6247324	0.078670463	-0.053353636	-1.049155	0.067908412	0.11408337	-1.5963791	0.094409298	0.039197396	-1.0412573	0.10783278	0.023892479	NaN	NaN	NaN	-1.1015348	0.030802592	0.058548964	-1.4704175	0.46753848	-0.11786912	-1.11293	0.52156494	0.1631557	-1.4669453	0.46856421	0.0085971539	-1.1148061	0.50295933	0.035941699	-1.3591564	0.87378212	-0.16324689	-1.3225597	0.87007541	0.20540481	-1.2517457	0.94505853	-0.11229735	-1.2414565	0.95157683	0.12760663	-1.4084788	1.0131501	0.019109764	-1.2145932	1.39999	-0.15108346	-1.2468111	1.4087295	0.17563381	-1.2915963	1.4592035	0.009487785	-1.302588	1.0333844	-0.23084471	-1.42239	1.0938825	0.25301219	-1.045644	0.93881708	-0.21235395	-1.3379083	0.83822022	0.29083816
4	0.012	-1.4750436	0.036522904	-0.024035965	-0.88190501	0.088226567	0.086732983	-1.6244359	0.079460575	-0.053188377	-1.0321753	0.068039418	0.11436169	-1.5959797	0.095046653	0.03939302	-1.0247818	0.10821357	0.02422892	NaN	NaN	NaN	-1.0832904	0.029754848	0.058856209	-1.4677527	0.46749088	-0.11785543	-1.1073305	0.51999441	0.16362329	-1.4641318	0.46846096	0.0086780383	-1.1081604	0.5015372	0.036056381	-1.3536212	0.87269062	-0.16299132	-1.3166242	0.86847914	0.20565406	-1.2458401	0.94369285	-0.11224392	-1.2352792	0.95004894	0.12774965	-1.4023359	1.0116345	0.019328302	-1.2086858	1.3987225	-0.15070807	-1.2410766	1.4072438	0.17602871	-1.2853591	1.4578623	0.010686378	-1.295476	1.0316826	-0.23063327	-1.4164394	1.0920813	0.25246644	-1.0378016	0.93919821	-0.21155309	-1.332448	0.83649983	0.29154759
5	0.016	-1.4749654	0.036491139	-0.024082107	-0.86543476	0.091948731	0.087523121	-1.6241071	0.080288134	-0.053079192	-1.0153695	0.068421396	0.11473256	-1.5955232	0.095705075	0.03953927	-1.0086725	0.10874612	0.024571452	NaN	NaN	NaN	-1.0652372	0.028834835	0.059332723	-1.4649094	0.467444	-0.11783916	-1.1015656	0.51843123	0.16399295	-1.4612234	0.46832022	0.0087694892	-1.101616	0.50006987	0.036095302	-1.3480445	0.87160002	-0.16272719	-1.3105357	0.86683615	0.20591299	-1.239889	0.9423274	-0.11219769	-1.2290049	0.9485233	0.12786294	-1.3961581	1.0100844	0.019557474	-1.2026909	1.3974284	-0.15031439	-1.2352702	1.4057427	0.1764244	-1.2792503	1.4564933	0.011413501	-1.2883261	1.0299928	-0.23031038	-1.4103081	1.0902259	0.2520257	-1.0299917	0.93947855	-0.21075471	-1.3269057	0.83476249	0.29222179
6	0.02	-1.4748897	0.036460972	-0.024133936	-0.84937112	0.095784273	0.088200605	-1.6237551	0.081169858	-0.053028461	-0.99854684	0.069133362	0.11522863	-1.5950216	0.096361763	0.039611204	-0.99295202	0.10940358	0.02488244	NaN	NaN	NaN	-1.0474125	0.028092369	0.059853708	-1.4618994	0.46738866	-0.11783424	-1.095573	0.5168839	0.16424402	-1.4581526	0.46815496	0.0088291973	-1.0951075	0.49857798	0.03610746	-1.3424277	0.87051181	-0.1624501	-1.304294	0.86516947	0.20617022	-1.2339111	0.94097323	-0.11216602	-1.2226439	0.94699255	0.12795022	-1.3899656	1.008515	0.019830208	-1.196592	1.3961209	-0.14989728	-1.2293676	1.4042335	0.17681983	-1.2732161	1.4551015	0.011818497	-1.28116	1.0283228	-0.229944	-1.4040418	1.088402	0.25170774	-1.0222127	0.93964518	-0.20997338	-1.3212703	0.83301127	0.29285697
7	0.024	-1.4748186	0.036430453	-0.024191614	-0.8336663	0.099702824	0.088658141	-1.6233785	0.082095892	-0.053035957	-0.98150614	0.070240577	0.11590652	-1.5944911	0.097032562	0.039594979	-0.97764294	0.11015764	0.025139609	NaN	NaN	NaN	-1.0299456	0.027580451	0.060254883	-1.4587191	0.46731158	-0.11785012	-1.0893978	0.51534685	0.16442335	-1.4549085	0.46796847	0.008844365	-1.0886123	0.49707346	0.036133058	-1.3367705	0.86942181	-0.16216106	-1.2979088	0.8634939	0.20641409	-1.2279122	0.93962836	-0.11215995	-1.2162202	0.94545691	0.12801513	-1.3837556	1.0069516	0.020159582	-1.1904123	1.3948129	-0.14946925	-1.2233638	1.4027213	0.17721366	-1.2671814	1.4537	0.012124592	-1.273993	1.0266748	-0.22956591	-1.3976851	1.0866171	0.25146657	-1.0144736	0.93970722	-0.2092234	-1.3155156	0.83125108	0.29345687
8	0.028	-1.4747479	0.036400314	-0.02425549	-0.8183717	0.10364169	0.08890898	-1.6229691	0.083054878	-0.053102899	-0.96445515	0.071635287	0.11670493	-1.5939236	0.097751573	0.039493375	-0.96276356	0.11100069	0.025346396	NaN	NaN	NaN	-1.0130502	0.027271076	0.060567242	-1.4553601	0.46720106	-0.11788891	-1.0830571	0.51384475	0.16456086	-1.451523	0.46776233	0.0088316955	-1.082132	0.49555306	0.036180554	-1.3310721	0.86832188	-0.16186368	-1.2913736	0.86181238	0.20663441	-1.22189	0.93828868	-0.11218674	-1.2097208	0.94392297	0.12805903	-1.377514	1.0054166	0.020540486	-1.1842031	1.3935091	-0.1490523	-1.2172861	1.4012075	0.17760761	-1.2611136	1.4523006	0.012453043	-1.2668305	1.0250476	-0.22916825	-1.3912764	1.0848381	0.25123011	-1.006789	0.9396906	-0.20850829	-1.3096129	0.82948618	0.29402461
9	0.032	-1.4746691	0.036372759	-0.02432601	-0.80360423	0.10753044	0.089096389	-1.622514	0.084053486	-0.053233064	-0.94801655	0.073043728	0.11740111	-1.5932838	0.098530566	0.039315764	-0.94827322	0.11194284	0.025525424	NaN	NaN	NaN	-0.99691373	0.027075969	0.060961179	-1.4518181	0.46705324	-0.11794506	-1.0764817	0.5124179	0.16465583	-1.4480041	0.46753851	0.00880747	-1.0756682	0.49400953	0.036234976	-1.3253312	0.86720528	-0.16155781	-1.2846749	0.86011998	0.20682396	-1.2158324	0.93695266	-0.11224031	-1.203101	0.9424013	0.12808799	-1.3712325	1.003906	0.020950804	-1.1779941	1.3922068	-0.1486546	-1.2111636	1.399691	0.17800675	-1.2550086	1.450916	0.012835886	-1.2596763	1.0234478	-0.22875253	-1.3848411	1.0830413	0.25095455	-0.99917941	0.93961287	-0.20781718	-1.3035574	0.82771734	0.29456063
10	0.036	-1.4745784	0.036349234	-0.024402369	-0.78945401	0.11130874	0.089342546	-1.622001	0.085101857	-0.053429132	-0.93265024	0.074276719	0.1177854	-1.5925351	0.099354331	0.0390694	-0.93412403	0.11298424	0.025684622	NaN	NaN	NaN	-0.98156759	0.026962695	0.0614267	-1.4480899	0.46686287	-0.11800391	-1.0696362	0.51106038	0.16474501	-1.444299	0.46729772	0.0087683182	-1.0692111	0.49244607	0.036279792	-1.3195447	0.86607186	-0.16123889	-1.2778021	0.85841625	0.20698371	-1.2097245	0.93561652	-0.11230951	-1.19634	0.94090055	0.1281107	-1.3649081	1.0023894	0.021360857	-1.1717754	1.3909034	-0.14826736	-1.204982	1.3981701	0.17841321	-1.2488633	1.4495567	0.013270198	-1.2525341	1.021886	-0.22832971	-1.3783855	1.0812317	0.25064803	-0.99165132	0.93947341	-0.20713127	-1.2973703	0.82594349	0.29506648
11	0.04	-1.474479	0.036330202	-0.024483323	-0.77593893	0.11492362	0.089645153	-1.6214277	0.08620433	-0.05368825	-0.91832554	0.075348759	0.11780312	-1.5916663	0.10021436	0.038759625	-0.92039835	0.11407938	0.025793486	NaN	NaN	NaN	-0.96690365	0.026961565	0.061763579	-1.4441662	0.46662361	-0.11805856	-1.0625944	0.50972417	0.16489518	-1.4403465	0.46704261	0.0087093278	-1.0627369	0.49088147	0.036308387	-1.3137074	0.86492702	-0.16090219	-1.2707501	0.85671045	0.20711963	-1.2035598	0.93427891	-0.11238882	-1.1894652	0.93942573	0.12812836	-1.358537	1.0008424	0.021744483	-1.1655233	1.3896027	-0.14787847	-1.1986966	1.3966447	0.17882323	-1.2426707	1.4482242	0.013750414	-1.2454027	1.0203636	-0.2278866	-1.3718991	1.0794295	0.25034929	-0.98415526	0.93926175	-0.20642965	-1.2910702	0.82417022	0.29554871
